<mxfile host="app.diagrams.net" modified="2021-09-16T02:05:33.170Z" agent="5.0 (Windows NT 10.0; Win64; x64) AppleWebKit/537.36 (KHTML, like Gecko) Chrome/93.0.4577.63 Safari/537.36" etag="lLnMDqjjf6pNLN9Dt6eF" version="15.2.7" type="github">
  <diagram name="Page-1" id="13e1069c-82ec-6db2-03f1-153e76fe0fe0">
    <mxGraphModel dx="870" dy="1444" grid="1" gridSize="10" guides="1" tooltips="1" connect="1" arrows="1" fold="1" page="1" pageScale="1" pageWidth="1100" pageHeight="850" background="none" math="0" shadow="0">
      <root>
        <mxCell id="0" />
        <mxCell id="1" parent="0" />
        <mxCell id="7baba1c4bc27f4b0-2" value=":Homepage" style="shape=umlLifeline;perimeter=lifelinePerimeter;whiteSpace=wrap;html=1;container=1;collapsible=0;recursiveResize=0;outlineConnect=0;rounded=1;shadow=0;comic=0;labelBackgroundColor=none;strokeWidth=1;fontFamily=Verdana;fontSize=12;align=center;" parent="1" vertex="1">
          <mxGeometry x="260" y="80" width="100" height="580" as="geometry" />
        </mxCell>
        <mxCell id="7baba1c4bc27f4b0-10" value="" style="html=1;points=[];perimeter=orthogonalPerimeter;rounded=0;shadow=0;comic=0;labelBackgroundColor=none;strokeWidth=1;fontFamily=Verdana;fontSize=12;align=center;" parent="7baba1c4bc27f4b0-2" vertex="1">
          <mxGeometry x="45" y="100" width="10" height="40" as="geometry" />
        </mxCell>
        <mxCell id="4TVEe99Xzf-qVYbrV3lp-6" value="DisplayAccount()" style="html=1;verticalAlign=bottom;endArrow=block;labelBackgroundColor=none;fontFamily=Verdana;fontSize=12;edgeStyle=elbowEdgeStyle;elbow=vertical;dashed=1;" parent="7baba1c4bc27f4b0-2" edge="1">
          <mxGeometry relative="1" as="geometry">
            <mxPoint x="45" y="130" as="sourcePoint" />
            <mxPoint x="-110" y="130" as="targetPoint" />
          </mxGeometry>
        </mxCell>
        <mxCell id="4TVEe99Xzf-qVYbrV3lp-9" value="displayListView(user,debts,authorized)" style="html=1;verticalAlign=bottom;endArrow=block;labelBackgroundColor=none;fontFamily=Verdana;fontSize=12;edgeStyle=elbowEdgeStyle;elbow=vertical;jumpStyle=line;dashed=1;exitX=-0.014;exitY=0.25;exitDx=0;exitDy=0;exitPerimeter=0;" parent="7baba1c4bc27f4b0-2" source="7baba1c4bc27f4b0-13" edge="1">
          <mxGeometry relative="1" as="geometry">
            <mxPoint x="189.5" y="191" as="sourcePoint" />
            <mxPoint x="-100" y="197" as="targetPoint" />
          </mxGeometry>
        </mxCell>
        <mxCell id="4TVEe99Xzf-qVYbrV3lp-13" value="UpdateDebtView(user,debtID)" style="html=1;verticalAlign=bottom;endArrow=block;labelBackgroundColor=none;fontFamily=Verdana;fontSize=12;edgeStyle=elbowEdgeStyle;elbow=vertical;entryX=0.157;entryY=0.548;entryDx=0;entryDy=0;entryPerimeter=0;" parent="7baba1c4bc27f4b0-2" edge="1" target="7baba1c4bc27f4b0-13">
          <mxGeometry x="-0.0877" relative="1" as="geometry">
            <mxPoint x="-110" y="300" as="sourcePoint" />
            <mxPoint x="170" y="300" as="targetPoint" />
            <mxPoint as="offset" />
          </mxGeometry>
        </mxCell>
        <mxCell id="4TVEe99Xzf-qVYbrV3lp-21" value="" style="html=1;points=[];perimeter=orthogonalPerimeter;rounded=0;shadow=0;comic=0;labelBackgroundColor=none;strokeWidth=1;fontFamily=Verdana;fontSize=12;align=center;" parent="7baba1c4bc27f4b0-2" vertex="1">
          <mxGeometry x="45" y="490" width="10" height="70" as="geometry" />
        </mxCell>
        <mxCell id="4TVEe99Xzf-qVYbrV3lp-23" value="DisplayBaseView()" style="html=1;verticalAlign=bottom;endArrow=block;labelBackgroundColor=none;fontFamily=Verdana;fontSize=12;edgeStyle=elbowEdgeStyle;elbow=vertical;dashed=1;" parent="7baba1c4bc27f4b0-2" edge="1">
          <mxGeometry relative="1" as="geometry">
            <mxPoint x="45" y="540.14" as="sourcePoint" />
            <mxPoint x="-100" y="540" as="targetPoint" />
          </mxGeometry>
        </mxCell>
        <mxCell id="fCxWmug6QsuTnybMGCIH-9" value="displayListView(user,debts)" style="html=1;verticalAlign=bottom;endArrow=block;labelBackgroundColor=none;fontFamily=Verdana;fontSize=12;edgeStyle=elbowEdgeStyle;elbow=vertical;jumpStyle=line;dashed=1;" edge="1" parent="7baba1c4bc27f4b0-2">
          <mxGeometry relative="1" as="geometry">
            <mxPoint x="190.5" y="270.14" as="sourcePoint" />
            <mxPoint x="-99" y="270.14" as="targetPoint" />
          </mxGeometry>
        </mxCell>
        <mxCell id="fCxWmug6QsuTnybMGCIH-10" value="displayListView(user,debts,successMsg)" style="html=1;verticalAlign=bottom;endArrow=block;labelBackgroundColor=none;fontFamily=Verdana;fontSize=12;edgeStyle=elbowEdgeStyle;elbow=vertical;jumpStyle=line;dashed=1;" edge="1" parent="7baba1c4bc27f4b0-2">
          <mxGeometry relative="1" as="geometry">
            <mxPoint x="179.5" y="339.9999999999999" as="sourcePoint" />
            <mxPoint x="-110" y="339.9999999999999" as="targetPoint" />
          </mxGeometry>
        </mxCell>
        <mxCell id="4TVEe99Xzf-qVYbrV3lp-17" value="DeleteDebtView(user,debtID)" style="html=1;verticalAlign=bottom;endArrow=block;labelBackgroundColor=none;fontFamily=Verdana;fontSize=12;edgeStyle=elbowEdgeStyle;elbow=vertical;" parent="7baba1c4bc27f4b0-2" edge="1">
          <mxGeometry x="-0.0877" relative="1" as="geometry">
            <mxPoint x="-101" y="380" as="sourcePoint" />
            <mxPoint x="179" y="380" as="targetPoint" />
            <mxPoint as="offset" />
            <Array as="points">
              <mxPoint x="80" y="380" />
            </Array>
          </mxGeometry>
        </mxCell>
        <mxCell id="7baba1c4bc27f4b0-3" value=":DebtAccountManager" style="shape=umlLifeline;perimeter=lifelinePerimeter;whiteSpace=wrap;html=1;container=1;collapsible=0;recursiveResize=0;outlineConnect=0;rounded=1;shadow=0;comic=0;labelBackgroundColor=none;strokeWidth=1;fontFamily=Verdana;fontSize=12;align=center;" parent="1" vertex="1">
          <mxGeometry x="380" y="80" width="140" height="580" as="geometry" />
        </mxCell>
        <mxCell id="7baba1c4bc27f4b0-13" value="" style="html=1;points=[];perimeter=orthogonalPerimeter;rounded=0;shadow=0;comic=0;labelBackgroundColor=none;strokeWidth=1;fontFamily=Verdana;fontSize=12;align=center;" parent="7baba1c4bc27f4b0-3" vertex="1">
          <mxGeometry x="60" y="120" width="10" height="330" as="geometry" />
        </mxCell>
        <mxCell id="4TVEe99Xzf-qVYbrV3lp-12" value="CreateDebt(user,debtInfo)" style="html=1;verticalAlign=bottom;endArrow=block;labelBackgroundColor=none;fontFamily=Verdana;fontSize=12;edgeStyle=elbowEdgeStyle;elbow=vertical;entryX=-0.376;entryY=0.346;entryDx=0;entryDy=0;entryPerimeter=0;" parent="7baba1c4bc27f4b0-3" edge="1" target="7baba1c4bc27f4b0-16">
          <mxGeometry relative="1" as="geometry">
            <mxPoint x="60" y="240" as="sourcePoint" />
            <Array as="points">
              <mxPoint x="175" y="240" />
              <mxPoint x="85" y="210" />
            </Array>
            <mxPoint x="200" y="240" as="targetPoint" />
          </mxGeometry>
        </mxCell>
        <mxCell id="7baba1c4bc27f4b0-4" value=":DebtDAO" style="shape=umlLifeline;perimeter=lifelinePerimeter;whiteSpace=wrap;html=1;container=1;collapsible=0;recursiveResize=0;outlineConnect=0;rounded=1;shadow=0;comic=0;labelBackgroundColor=none;strokeWidth=1;fontFamily=Verdana;fontSize=12;align=center;" parent="1" vertex="1">
          <mxGeometry x="695" y="80" width="100" height="570" as="geometry" />
        </mxCell>
        <mxCell id="4TVEe99Xzf-qVYbrV3lp-11" value="return(debts,authorized)" style="html=1;verticalAlign=bottom;endArrow=open;dashed=1;endSize=8;labelBackgroundColor=none;fontFamily=Verdana;fontSize=12;edgeStyle=elbowEdgeStyle;elbow=vertical;" parent="7baba1c4bc27f4b0-4" edge="1" target="7baba1c4bc27f4b0-3">
          <mxGeometry relative="1" as="geometry">
            <mxPoint x="-100" y="191" as="targetPoint" />
            <Array as="points">
              <mxPoint x="-100" y="191" />
              <mxPoint x="-10" y="190" />
              <mxPoint x="20" y="190" />
            </Array>
            <mxPoint x="45" y="190" as="sourcePoint" />
          </mxGeometry>
        </mxCell>
        <mxCell id="fCxWmug6QsuTnybMGCIH-18" value="AuthUser(username, password)" style="html=1;verticalAlign=bottom;endArrow=block;labelBackgroundColor=none;fontFamily=Verdana;fontSize=12;edgeStyle=elbowEdgeStyle;elbow=vertical;entryX=0.5;entryY=0.214;entryDx=0;entryDy=0;entryPerimeter=0;" edge="1" parent="7baba1c4bc27f4b0-4" target="fCxWmug6QsuTnybMGCIH-15">
          <mxGeometry relative="1" as="geometry">
            <mxPoint x="55" y="170" as="sourcePoint" />
            <Array as="points">
              <mxPoint x="155" y="170" />
              <mxPoint x="65" y="140" />
            </Array>
            <mxPoint x="275" y="170" as="targetPoint" />
          </mxGeometry>
        </mxCell>
        <mxCell id="fCxWmug6QsuTnybMGCIH-22" value="AuthUserStillValid()" style="html=1;verticalAlign=bottom;endArrow=block;labelBackgroundColor=none;fontFamily=Verdana;fontSize=12;edgeStyle=elbowEdgeStyle;elbow=vertical;entryX=0.5;entryY=0.214;entryDx=0;entryDy=0;entryPerimeter=0;" edge="1" parent="7baba1c4bc27f4b0-4">
          <mxGeometry relative="1" as="geometry">
            <mxPoint x="55" y="310.02" as="sourcePoint" />
            <Array as="points">
              <mxPoint x="155" y="310.02" />
              <mxPoint x="65" y="280.02" />
            </Array>
            <mxPoint x="290" y="310" as="targetPoint" />
          </mxGeometry>
        </mxCell>
        <mxCell id="fCxWmug6QsuTnybMGCIH-27" value="AuthUserStillValid()" style="html=1;verticalAlign=bottom;endArrow=block;labelBackgroundColor=none;fontFamily=Verdana;fontSize=12;edgeStyle=elbowEdgeStyle;elbow=vertical;entryX=0.5;entryY=0.214;entryDx=0;entryDy=0;entryPerimeter=0;" edge="1" parent="7baba1c4bc27f4b0-4">
          <mxGeometry relative="1" as="geometry">
            <mxPoint x="55" y="246.44" as="sourcePoint" />
            <Array as="points">
              <mxPoint x="155" y="246.44" />
              <mxPoint x="65" y="216.44" />
            </Array>
            <mxPoint x="290" y="239.99999999999994" as="targetPoint" />
          </mxGeometry>
        </mxCell>
        <mxCell id="7baba1c4bc27f4b0-16" value="" style="html=1;points=[];perimeter=orthogonalPerimeter;rounded=0;shadow=0;comic=0;labelBackgroundColor=none;strokeWidth=1;fontFamily=Verdana;fontSize=12;align=center;" parent="1" vertex="1">
          <mxGeometry x="740" y="225" width="10" height="305" as="geometry" />
        </mxCell>
        <mxCell id="7baba1c4bc27f4b0-17" value="GetDebts(user)" style="html=1;verticalAlign=bottom;endArrow=block;labelBackgroundColor=none;fontFamily=Verdana;fontSize=12;edgeStyle=elbowEdgeStyle;elbow=vertical;" parent="1" source="7baba1c4bc27f4b0-13" target="7baba1c4bc27f4b0-16" edge="1">
          <mxGeometry relative="1" as="geometry">
            <mxPoint x="510" y="220" as="sourcePoint" />
            <Array as="points">
              <mxPoint x="550" y="250" />
              <mxPoint x="460" y="220" />
            </Array>
          </mxGeometry>
        </mxCell>
        <mxCell id="7baba1c4bc27f4b0-11" value="Login(username, password)" style="html=1;verticalAlign=bottom;endArrow=block;entryX=0;entryY=0;labelBackgroundColor=none;fontFamily=Verdana;fontSize=12;edgeStyle=elbowEdgeStyle;elbow=vertical;" parent="1" source="7baba1c4bc27f4b0-9" target="7baba1c4bc27f4b0-10" edge="1">
          <mxGeometry x="0.1323" y="10" relative="1" as="geometry">
            <mxPoint x="220" y="190" as="sourcePoint" />
            <mxPoint as="offset" />
          </mxGeometry>
        </mxCell>
        <mxCell id="7baba1c4bc27f4b0-41" value="Note" style="shape=note;whiteSpace=wrap;html=1;size=14;verticalAlign=top;align=left;spacingTop=-6;rounded=0;shadow=0;comic=0;labelBackgroundColor=none;strokeWidth=1;fontFamily=Verdana;fontSize=12" parent="1" vertex="1">
          <mxGeometry x="240" y="30" width="100" height="35" as="geometry" />
        </mxCell>
        <mxCell id="7baba1c4bc27f4b0-42" value="Note" style="shape=note;whiteSpace=wrap;html=1;size=14;verticalAlign=top;align=left;spacingTop=-6;rounded=0;shadow=0;comic=0;labelBackgroundColor=none;strokeWidth=1;fontFamily=Verdana;fontSize=12" parent="1" vertex="1">
          <mxGeometry x="400" y="30" width="100" height="35" as="geometry" />
        </mxCell>
        <mxCell id="7baba1c4bc27f4b0-43" value="Debt Info is the condensed variable name for all fields from the debt class." style="shape=note;whiteSpace=wrap;html=1;size=14;verticalAlign=top;align=left;spacingTop=-6;rounded=0;shadow=0;comic=0;labelBackgroundColor=none;strokeWidth=1;fontFamily=Verdana;fontSize=12" parent="1" vertex="1">
          <mxGeometry x="680" y="-20" width="115" height="85" as="geometry" />
        </mxCell>
        <mxCell id="7baba1c4bc27f4b0-9" value="" style="html=1;points=[];perimeter=orthogonalPerimeter;rounded=0;shadow=0;comic=0;labelBackgroundColor=none;strokeWidth=1;fontFamily=Verdana;fontSize=12;align=center;" parent="1" vertex="1">
          <mxGeometry x="145" y="180" width="10" height="460" as="geometry" />
        </mxCell>
        <mxCell id="4TVEe99Xzf-qVYbrV3lp-2" value="" style="endArrow=none;dashed=1;html=1;" parent="1" edge="1">
          <mxGeometry width="50" height="50" relative="1" as="geometry">
            <mxPoint x="150" y="690" as="sourcePoint" />
            <mxPoint x="150" y="120" as="targetPoint" />
          </mxGeometry>
        </mxCell>
        <mxCell id="fCxWmug6QsuTnybMGCIH-1" value="" style="edgeStyle=orthogonalEdgeStyle;rounded=0;orthogonalLoop=1;jettySize=auto;html=1;" edge="1" parent="1" source="4TVEe99Xzf-qVYbrV3lp-3" target="7baba1c4bc27f4b0-9">
          <mxGeometry relative="1" as="geometry">
            <mxPoint x="150" y="120" as="sourcePoint" />
          </mxGeometry>
        </mxCell>
        <mxCell id="4TVEe99Xzf-qVYbrV3lp-3" value="User" style="shape=umlActor;verticalLabelPosition=bottom;verticalAlign=top;html=1;outlineConnect=0;" parent="1" vertex="1">
          <mxGeometry x="135" y="20" width="30" height="60" as="geometry" />
        </mxCell>
        <mxCell id="4TVEe99Xzf-qVYbrV3lp-7" value="listViewDebtAccounts(user)" style="html=1;verticalAlign=bottom;endArrow=block;labelBackgroundColor=none;fontFamily=Verdana;fontSize=12;edgeStyle=elbowEdgeStyle;elbow=vertical;entryX=-0.243;entryY=0.12;entryDx=0;entryDy=0;entryPerimeter=0;" parent="1" edge="1" target="7baba1c4bc27f4b0-13">
          <mxGeometry relative="1" as="geometry">
            <mxPoint x="155" y="240" as="sourcePoint" />
            <mxPoint x="420" y="240" as="targetPoint" />
            <Array as="points">
              <mxPoint x="390" y="240" />
            </Array>
          </mxGeometry>
        </mxCell>
        <mxCell id="4TVEe99Xzf-qVYbrV3lp-10" value="CreateDebtView(user)" style="html=1;verticalAlign=bottom;endArrow=block;labelBackgroundColor=none;fontFamily=Verdana;fontSize=12;edgeStyle=elbowEdgeStyle;elbow=vertical;entryX=-0.243;entryY=0.311;entryDx=0;entryDy=0;entryPerimeter=0;" parent="1" edge="1" target="7baba1c4bc27f4b0-13">
          <mxGeometry x="-0.0877" relative="1" as="geometry">
            <mxPoint x="155" y="300" as="sourcePoint" />
            <mxPoint x="420" y="304" as="targetPoint" />
            <mxPoint as="offset" />
            <Array as="points">
              <mxPoint x="360" y="303" />
            </Array>
          </mxGeometry>
        </mxCell>
        <mxCell id="4TVEe99Xzf-qVYbrV3lp-14" value="UpdateDebt(user, debtInfo)" style="html=1;verticalAlign=bottom;endArrow=block;labelBackgroundColor=none;fontFamily=Verdana;fontSize=12;edgeStyle=elbowEdgeStyle;elbow=vertical;entryX=-0.424;entryY=0.529;entryDx=0;entryDy=0;entryPerimeter=0;exitX=1.071;exitY=0.596;exitDx=0;exitDy=0;exitPerimeter=0;" parent="1" edge="1" target="7baba1c4bc27f4b0-16" source="7baba1c4bc27f4b0-13">
          <mxGeometry relative="1" as="geometry">
            <mxPoint x="440" y="369.5" as="sourcePoint" />
            <Array as="points">
              <mxPoint x="510" y="386" />
              <mxPoint x="520" y="400" />
              <mxPoint x="555" y="369.5" />
              <mxPoint x="465" y="339.5" />
            </Array>
            <mxPoint x="580" y="369.5" as="targetPoint" />
          </mxGeometry>
        </mxCell>
        <mxCell id="4TVEe99Xzf-qVYbrV3lp-16" value="return(success)" style="html=1;verticalAlign=bottom;endArrow=open;dashed=1;endSize=8;labelBackgroundColor=none;fontFamily=Verdana;fontSize=12;edgeStyle=elbowEdgeStyle;elbow=vertical;exitX=0.148;exitY=0.407;exitDx=0;exitDy=0;exitPerimeter=0;" parent="1" edge="1" source="7baba1c4bc27f4b0-16">
          <mxGeometry relative="1" as="geometry">
            <mxPoint x="440" y="341" as="targetPoint" />
            <Array as="points">
              <mxPoint x="740" y="341" />
              <mxPoint x="530" y="340" />
              <mxPoint x="560" y="340" />
            </Array>
            <mxPoint x="585" y="340" as="sourcePoint" />
          </mxGeometry>
        </mxCell>
        <mxCell id="fCxWmug6QsuTnybMGCIH-3" value="return(successMsg)" style="html=1;verticalAlign=bottom;endArrow=open;dashed=1;endSize=8;labelBackgroundColor=none;fontFamily=Verdana;fontSize=12;edgeStyle=elbowEdgeStyle;elbow=vertical;exitX=0.148;exitY=0.407;exitDx=0;exitDy=0;exitPerimeter=0;" edge="1" parent="1">
          <mxGeometry relative="1" as="geometry">
            <mxPoint x="450" y="412.04" as="targetPoint" />
            <Array as="points">
              <mxPoint x="750" y="412.04" />
              <mxPoint x="540" y="411.04" />
              <mxPoint x="570" y="411.04" />
            </Array>
            <mxPoint x="751.48" y="410.00000000000006" as="sourcePoint" />
          </mxGeometry>
        </mxCell>
        <mxCell id="4TVEe99Xzf-qVYbrV3lp-19" value="return(successMsg)" style="html=1;verticalAlign=bottom;endArrow=open;dashed=1;endSize=8;labelBackgroundColor=none;fontFamily=Verdana;fontSize=12;edgeStyle=elbowEdgeStyle;elbow=vertical;exitX=-0.3;exitY=0.943;exitDx=0;exitDy=0;exitPerimeter=0;" parent="1" edge="1" target="7baba1c4bc27f4b0-3" source="7baba1c4bc27f4b0-16">
          <mxGeometry relative="1" as="geometry">
            <mxPoint x="590" y="475.5" as="targetPoint" />
            <Array as="points">
              <mxPoint x="580" y="510" />
              <mxPoint x="650" y="476" />
              <mxPoint x="590" y="475.5" />
              <mxPoint x="680" y="474.5" />
              <mxPoint x="710" y="474.5" />
            </Array>
            <mxPoint x="690" y="476" as="sourcePoint" />
          </mxGeometry>
        </mxCell>
        <mxCell id="4TVEe99Xzf-qVYbrV3lp-18" value="DeleteDebt(user, debtID)" style="html=1;verticalAlign=bottom;endArrow=block;labelBackgroundColor=none;fontFamily=Verdana;fontSize=12;edgeStyle=elbowEdgeStyle;elbow=vertical;" parent="1" edge="1">
          <mxGeometry relative="1" as="geometry">
            <mxPoint x="450" y="480" as="sourcePoint" />
            <Array as="points">
              <mxPoint x="555" y="480" />
              <mxPoint x="465" y="450" />
            </Array>
            <mxPoint x="740" y="480" as="targetPoint" />
          </mxGeometry>
        </mxCell>
        <mxCell id="fCxWmug6QsuTnybMGCIH-11" value="displayListView(user,debts,successMsg)" style="html=1;verticalAlign=bottom;endArrow=block;labelBackgroundColor=none;fontFamily=Verdana;fontSize=12;edgeStyle=elbowEdgeStyle;elbow=vertical;jumpStyle=line;dashed=1;" edge="1" parent="1">
          <mxGeometry relative="1" as="geometry">
            <mxPoint x="444.5" y="520.14" as="sourcePoint" />
            <mxPoint x="155" y="520.14" as="targetPoint" />
          </mxGeometry>
        </mxCell>
        <mxCell id="4TVEe99Xzf-qVYbrV3lp-22" value="Logout()" style="html=1;verticalAlign=bottom;endArrow=block;entryX=0;entryY=0;labelBackgroundColor=none;fontFamily=Verdana;fontSize=12;edgeStyle=elbowEdgeStyle;elbow=vertical;" parent="1" edge="1">
          <mxGeometry relative="1" as="geometry">
            <mxPoint x="150" y="590" as="sourcePoint" />
            <mxPoint x="305" y="590.14" as="targetPoint" />
          </mxGeometry>
        </mxCell>
        <mxCell id="fCxWmug6QsuTnybMGCIH-14" value=":UserAuth" style="shape=umlLifeline;perimeter=lifelinePerimeter;whiteSpace=wrap;html=1;container=1;collapsible=0;recursiveResize=0;outlineConnect=0;rounded=1;shadow=0;comic=0;labelBackgroundColor=none;strokeWidth=1;fontFamily=Verdana;fontSize=12;align=center;" vertex="1" parent="1">
          <mxGeometry x="920" y="75" width="140" height="580" as="geometry" />
        </mxCell>
        <mxCell id="fCxWmug6QsuTnybMGCIH-15" value="" style="html=1;points=[];perimeter=orthogonalPerimeter;rounded=0;shadow=0;comic=0;labelBackgroundColor=none;strokeWidth=1;fontFamily=Verdana;fontSize=12;align=center;" vertex="1" parent="fCxWmug6QsuTnybMGCIH-14">
          <mxGeometry x="60" y="160" width="10" height="40" as="geometry" />
        </mxCell>
        <mxCell id="fCxWmug6QsuTnybMGCIH-19" value="return(authorized)" style="html=1;verticalAlign=bottom;endArrow=open;dashed=1;endSize=8;labelBackgroundColor=none;fontFamily=Verdana;fontSize=12;edgeStyle=elbowEdgeStyle;elbow=vertical;entryX=1.069;entryY=0.174;entryDx=0;entryDy=0;entryPerimeter=0;" edge="1" parent="fCxWmug6QsuTnybMGCIH-14" target="7baba1c4bc27f4b0-16">
          <mxGeometry relative="1" as="geometry">
            <mxPoint x="-160" y="206" as="targetPoint" />
            <Array as="points">
              <mxPoint x="-50" y="195" />
              <mxPoint x="5" y="205" />
              <mxPoint x="35" y="205" />
            </Array>
            <mxPoint x="60" y="205" as="sourcePoint" />
          </mxGeometry>
        </mxCell>
        <mxCell id="fCxWmug6QsuTnybMGCIH-20" value="" style="html=1;points=[];perimeter=orthogonalPerimeter;rounded=0;shadow=0;comic=0;labelBackgroundColor=none;strokeWidth=1;fontFamily=Verdana;fontSize=12;align=center;" vertex="1" parent="fCxWmug6QsuTnybMGCIH-14">
          <mxGeometry x="60" y="295" width="10" height="70" as="geometry" />
        </mxCell>
        <mxCell id="fCxWmug6QsuTnybMGCIH-23" value="" style="html=1;points=[];perimeter=orthogonalPerimeter;rounded=0;shadow=0;comic=0;labelBackgroundColor=none;strokeWidth=1;fontFamily=Verdana;fontSize=12;align=center;" vertex="1" parent="fCxWmug6QsuTnybMGCIH-14">
          <mxGeometry x="60" y="385" width="10" height="70" as="geometry" />
        </mxCell>
        <mxCell id="fCxWmug6QsuTnybMGCIH-25" value="return(authorized)" style="html=1;verticalAlign=bottom;endArrow=open;dashed=1;endSize=8;labelBackgroundColor=none;fontFamily=Verdana;fontSize=12;edgeStyle=elbowEdgeStyle;elbow=vertical;exitX=-0.276;exitY=0.517;exitDx=0;exitDy=0;exitPerimeter=0;" edge="1" parent="fCxWmug6QsuTnybMGCIH-14">
          <mxGeometry relative="1" as="geometry">
            <mxPoint x="-170" y="436" as="targetPoint" />
            <Array as="points">
              <mxPoint x="-50" y="425" />
              <mxPoint x="-47.24000000000001" y="425.46" />
              <mxPoint x="7.069999999999936" y="456.46000000000004" />
              <mxPoint x="37.069999999999936" y="456.46000000000004" />
            </Array>
            <mxPoint x="60" y="432.65000000000003" as="sourcePoint" />
          </mxGeometry>
        </mxCell>
        <mxCell id="fCxWmug6QsuTnybMGCIH-26" value="" style="html=1;points=[];perimeter=orthogonalPerimeter;rounded=0;shadow=0;comic=0;labelBackgroundColor=none;strokeWidth=1;fontFamily=Verdana;fontSize=12;align=center;" vertex="1" parent="fCxWmug6QsuTnybMGCIH-14">
          <mxGeometry x="60" y="235" width="10" height="45" as="geometry" />
        </mxCell>
        <mxCell id="fCxWmug6QsuTnybMGCIH-17" value="Note" style="shape=note;whiteSpace=wrap;html=1;size=14;verticalAlign=top;align=left;spacingTop=-6;rounded=0;shadow=0;comic=0;labelBackgroundColor=none;strokeWidth=1;fontFamily=Verdana;fontSize=12" vertex="1" parent="1">
          <mxGeometry x="940" y="20" width="100" height="35" as="geometry" />
        </mxCell>
        <mxCell id="fCxWmug6QsuTnybMGCIH-21" value="return(authorized)" style="html=1;verticalAlign=bottom;endArrow=open;dashed=1;endSize=8;labelBackgroundColor=none;fontFamily=Verdana;fontSize=12;edgeStyle=elbowEdgeStyle;elbow=vertical;entryX=1.172;entryY=0.569;entryDx=0;entryDy=0;entryPerimeter=0;exitX=-0.276;exitY=0.517;exitDx=0;exitDy=0;exitPerimeter=0;" edge="1" parent="1" source="fCxWmug6QsuTnybMGCIH-20" target="7baba1c4bc27f4b0-16">
          <mxGeometry relative="1" as="geometry">
            <mxPoint x="750" y="428.07000000000016" as="targetPoint" />
            <Array as="points">
              <mxPoint x="880" y="410" />
              <mxPoint x="870" y="399" />
              <mxPoint x="924.31" y="430" />
              <mxPoint x="954.31" y="430" />
            </Array>
            <mxPoint x="970" y="420" as="sourcePoint" />
          </mxGeometry>
        </mxCell>
        <mxCell id="fCxWmug6QsuTnybMGCIH-24" value="AuthUserStillValid()" style="html=1;verticalAlign=bottom;endArrow=block;labelBackgroundColor=none;fontFamily=Verdana;fontSize=12;edgeStyle=elbowEdgeStyle;elbow=vertical;entryX=0.5;entryY=0.214;entryDx=0;entryDy=0;entryPerimeter=0;" edge="1" parent="1">
          <mxGeometry relative="1" as="geometry">
            <mxPoint x="750" y="480.02" as="sourcePoint" />
            <Array as="points">
              <mxPoint x="850" y="480.02" />
              <mxPoint x="760" y="450.02" />
            </Array>
            <mxPoint x="985" y="480" as="targetPoint" />
          </mxGeometry>
        </mxCell>
        <mxCell id="fCxWmug6QsuTnybMGCIH-28" value="return(authorized)" style="html=1;verticalAlign=bottom;endArrow=open;dashed=1;endSize=8;labelBackgroundColor=none;fontFamily=Verdana;fontSize=12;edgeStyle=elbowEdgeStyle;elbow=vertical;entryX=1.069;entryY=0.174;entryDx=0;entryDy=0;entryPerimeter=0;" edge="1" parent="1">
          <mxGeometry relative="1" as="geometry">
            <mxPoint x="750" y="348.06999999999994" as="targetPoint" />
            <Array as="points">
              <mxPoint x="869.31" y="340" />
              <mxPoint x="924.31" y="350" />
              <mxPoint x="954.31" y="350" />
            </Array>
            <mxPoint x="979.31" y="350" as="sourcePoint" />
          </mxGeometry>
        </mxCell>
      </root>
    </mxGraphModel>
  </diagram>
</mxfile>
